<svg xmlns="http://www.w3.org/2000/svg" xmlns:xlink="http://www.w3.org/1999/xlink" width="500" zoomAndPan="magnify" viewBox="0 0 375 374.999991" height="500" preserveAspectRatio="xMidYMid meet" version="1.0"><defs><clipPath id="7002e0c6fe"><path d="M 25.078125 187 L 349.828125 187 L 349.828125 375 L 25.078125 375 Z M 25.078125 187 " clip-rule="nonzero"/></clipPath><clipPath id="0c1ce0e375"><path d="M 176 0 L 349.828125 0 L 349.828125 282 L 176 282 Z M 176 0 " clip-rule="nonzero"/></clipPath><clipPath id="bb2c91b225"><path d="M 25.078125 0 L 188 0 L 188 282 L 25.078125 282 Z M 25.078125 0 " clip-rule="nonzero"/></clipPath><clipPath id="4210a92922"><path d="M 25.078125 93 L 107 93 L 107 329 L 25.078125 329 Z M 25.078125 93 " clip-rule="nonzero"/></clipPath></defs><g clip-path="url(#7002e0c6fe)"><path fill="#0056b3" d="M 349.882812 281.242188 L 187.488281 187.488281 L 25.117188 281.242188 L 187.488281 375 Z M 349.882812 281.242188 " fill-opacity="1" fill-rule="evenodd"/></g><g clip-path="url(#0c1ce0e375)"><path fill="#022b60" d="M 187.488281 187.488281 L 179.269531 172.710938 L 187.488281 147.128906 C 199.410156 147.128906 211.335938 149.925781 221.003906 155.5 L 268.671875 183.027344 L 301.644531 202.054688 L 349.855469 174.214844 L 349.855469 281.242188 Z M 187.488281 80.511719 L 268.671875 127.375 L 349.855469 174.242188 L 349.855469 93.757812 L 187.488281 0 L 176.082031 47.488281 Z M 187.488281 80.511719 " fill-opacity="1" fill-rule="evenodd"/></g><g clip-path="url(#bb2c91b225)"><path fill="#ff9202" d="M 187.488281 187.488281 L 187.488281 147.152344 C 175.5625 147.152344 163.640625 149.953125 153.972656 155.527344 L 106.300781 183.054688 L 73.332031 202.082031 L 25.117188 174.242188 L 25.117188 281.242188 Z M 187.488281 80.511719 L 106.300781 127.375 L 25.117188 174.242188 L 25.117188 93.757812 L 187.488281 0 Z M 187.488281 80.511719 " fill-opacity="1" fill-rule="evenodd"/></g><g clip-path="url(#4210a92922)"><path fill="#022b60" d="M 25.117188 281.242188 L 25.117188 93.757812 L 106.300781 140.621094 L 106.300781 328.132812 Z M 25.117188 281.242188 " fill-opacity="1" fill-rule="evenodd"/></g></svg>